<svg xmlns="http://www.w3.org/2000/svg" viewBox="0 0 356.59 77.47"><defs><style>.cls-1{fill:none;}.cls-2{fill:#000064;}</style></defs><g id="Layer_2" data-name="Layer 2"><g id="_2._TEXT" data-name="2. TEXT"><path class="cls-1" d="M206.83,40.38a4.28,4.28,0,0,0,1.92-1.12,4.67,4.67,0,0,0,1.09-2,10.9,10.9,0,0,0,.34-2.94,10.4,10.4,0,0,0-.3-2.65,4.5,4.5,0,0,0-1-1.87,4.11,4.11,0,0,0-1.75-1.11,8.31,8.31,0,0,0-2.62-.37h-2.47v12.4H204A10.07,10.07,0,0,0,206.83,40.38Z"/><path class="cls-1" d="M223.29,47.94a6,6,0,0,0,2.3,2.24,8,8,0,0,0,6.87,0,6,6,0,0,0,2.29-2.24A10.76,10.76,0,0,0,236,44.36a26.87,26.87,0,0,0,.39-4.82,26.79,26.79,0,0,0-.39-4.82,10.68,10.68,0,0,0-1.27-3.58,6.11,6.11,0,0,0-2.27-2.22,7,7,0,0,0-3.42-.76,7.21,7.21,0,0,0-3.45.76,6.07,6.07,0,0,0-2.31,2.22,10.47,10.47,0,0,0-1.3,3.58,25.85,25.85,0,0,0-.4,4.82,25.93,25.93,0,0,0,.4,4.82A10.55,10.55,0,0,0,223.29,47.94Z"/><path class="cls-1" d="M148.2,35.83c-.13-.42-.27-.85-.4-1.31s-.27-.92-.41-1.39-.27-1-.39-1.41-.23-.92-.33-1.35c-.11.37-.23.78-.37,1.21s-.29.89-.45,1.35l-.48,1.39-.46,1.33-2.14,6.14h7.35Z"/><path class="cls-1" d="M250.28,47.94a6,6,0,0,0,2.3,2.24,8,8,0,0,0,6.87,0,6,6,0,0,0,2.29-2.24A10.76,10.76,0,0,0,263,44.36a26.87,26.87,0,0,0,.39-4.82,26.79,26.79,0,0,0-.39-4.82,10.68,10.68,0,0,0-1.27-3.58,6.06,6.06,0,0,0-2.28-2.22,7,7,0,0,0-3.41-.76,7.21,7.21,0,0,0-3.45.76,6.09,6.09,0,0,0-2.32,2.22A10.47,10.47,0,0,0,249,34.72a25.85,25.85,0,0,0-.4,4.82,25.93,25.93,0,0,0,.4,4.82A10.34,10.34,0,0,0,250.28,47.94Z"/><path class="cls-1" d="M52,37.6a3.05,3.05,0,0,0,1.35-.82,3.47,3.47,0,0,0,.72-1.45,9.35,9.35,0,0,0,.21-2.13,7.67,7.67,0,0,0-.24-2.08,3,3,0,0,0-.77-1.35A3.15,3.15,0,0,0,51.89,29a8.78,8.78,0,0,0-2.08-.22H48.5v9.06h1.39A7.1,7.1,0,0,0,52,37.6Z"/><path class="cls-1" d="M54.36,49.2a3.59,3.59,0,0,0,.77-1.55,9.79,9.79,0,0,0,.24-2.34A11.27,11.27,0,0,0,55.16,43a3.79,3.79,0,0,0-.73-1.62,3,3,0,0,0-1.35-1A5.74,5.74,0,0,0,51,40.09H48.5V50.33h2.42a7.15,7.15,0,0,0,2-.26A3.06,3.06,0,0,0,54.36,49.2Z"/><path class="cls-1" d="M1.23,76.23H355.35v-75H1.23ZM336.82,35.89A2.85,2.85,0,1,1,334,38.73,2.84,2.84,0,0,1,336.82,35.89ZM297,51h.46a7,7,0,0,0,1.14-.08,2.54,2.54,0,0,0,.95-.32,1.75,1.75,0,0,0,.65-.74,3,3,0,0,0,.24-1.29V30.73a3.49,3.49,0,0,0-.23-1.37,1.87,1.87,0,0,0-.64-.79,2.41,2.41,0,0,0-.95-.36,7.09,7.09,0,0,0-1.16-.09H297V26.59h18.32l.18,6.36h-1.89l-.17-1.56a4.84,4.84,0,0,0-.28-1.15,2.79,2.79,0,0,0-.58-.95,2.86,2.86,0,0,0-1-.65,3.66,3.66,0,0,0-1.4-.24h-6.1v9.68h8.77v1.78h-8.77V50.74h7a4.06,4.06,0,0,0,1.48-.24,2.79,2.79,0,0,0,1-.65,3,3,0,0,0,.64-1,4.81,4.81,0,0,0,.32-1.14l.25-1.56h1.9l-.25,6.35H297Zm-26.9-24.43h10.58v1.53h-.48a7.27,7.27,0,0,0-1.16.09,2.41,2.41,0,0,0-.95.36,2,2,0,0,0-.63.79,3.3,3.3,0,0,0-.24,1.37V44.92a7.18,7.18,0,0,0,.45,2.69,4.57,4.57,0,0,0,1.26,1.8,5,5,0,0,0,1.92,1,8.9,8.9,0,0,0,2.44.32,7.65,7.65,0,0,0,2.72-.43,5,5,0,0,0,1.9-1.18A4.57,4.57,0,0,0,289,47.34a6.9,6.9,0,0,0,.37-2.28V30.59a3,3,0,0,0-.24-1.29,1.84,1.84,0,0,0-.65-.75,2.26,2.26,0,0,0-1-.35,8.42,8.42,0,0,0-1.15-.08h-.46V26.59H295v1.53h-.48a7.27,7.27,0,0,0-1.16.09,2.41,2.41,0,0,0-.95.36,2,2,0,0,0-.63.79,3.3,3.3,0,0,0-.24,1.37v14.4a8.85,8.85,0,0,1-.58,3.26,6.43,6.43,0,0,1-1.71,2.45,7.51,7.51,0,0,1-2.79,1.53,12.5,12.5,0,0,1-3.84.54,14.67,14.67,0,0,1-3.85-.46A7.47,7.47,0,0,1,275.92,51a6.46,6.46,0,0,1-1.8-2.54,10.32,10.32,0,0,1-.62-3.78V30.59a3,3,0,0,0-.24-1.29,1.84,1.84,0,0,0-.65-.75,2.26,2.26,0,0,0-.95-.35,8.27,8.27,0,0,0-1.14-.08h-.46ZM245.27,34a11.65,11.65,0,0,1,2.13-4.2A9.5,9.5,0,0,1,251,27.13a12.55,12.55,0,0,1,5.06-.95,11.8,11.8,0,0,1,4.86.95,10,10,0,0,1,3.57,2.7,12,12,0,0,1,2.2,4.21,18.81,18.81,0,0,1,.75,5.5,19.36,19.36,0,0,1-.59,4.9,13,13,0,0,1-1.73,3.94,9.93,9.93,0,0,1-2.82,2.81,10.14,10.14,0,0,1-3.85,1.5,12.57,12.57,0,0,0,.61,3.12,5.84,5.84,0,0,0,1.13,2,3.93,3.93,0,0,0,1.62,1.07,6.2,6.2,0,0,0,2,.32h.59v1.7h-1.56a10.83,10.83,0,0,1-2.87-.38,7,7,0,0,1-2.6-1.31,7.29,7.29,0,0,1-2-2.49,10.22,10.22,0,0,1-1-3.89,11.05,11.05,0,0,1-4.36-1.33A9.44,9.44,0,0,1,247,48.73a12.44,12.44,0,0,1-1.84-4.07,20.29,20.29,0,0,1-.61-5.16A19.51,19.51,0,0,1,245.27,34Zm-27,0a11.65,11.65,0,0,1,2.13-4.2A9.5,9.5,0,0,1,224,27.13a12.55,12.55,0,0,1,5.06-.95,11.8,11.8,0,0,1,4.86.95,10,10,0,0,1,3.57,2.7,11.81,11.81,0,0,1,2.2,4.21,18.81,18.81,0,0,1,.75,5.5,18.79,18.79,0,0,1-.75,5.47,11.85,11.85,0,0,1-2.2,4.22A9.84,9.84,0,0,1,233.91,52a11.82,11.82,0,0,1-4.89,1,12.25,12.25,0,0,1-5-1,9.56,9.56,0,0,1-3.57-2.72A11.71,11.71,0,0,1,218.28,45a20.08,20.08,0,0,1-.71-5.5A19.88,19.88,0,0,1,218.28,34ZM195,51h.46a7.13,7.13,0,0,0,1.16-.08,2.28,2.28,0,0,0,1-.37,1.69,1.69,0,0,0,.64-.79,3.28,3.28,0,0,0,.23-1.37V30.59a3,3,0,0,0-.24-1.29,1.82,1.82,0,0,0-.64-.75,2.31,2.31,0,0,0-.95-.35,8.53,8.53,0,0,0-1.15-.08H195V26.59h10.21a13.46,13.46,0,0,1,4,.53,7.35,7.35,0,0,1,2.78,1.51A6.12,6.12,0,0,1,213.57,31a8.84,8.84,0,0,1,.54,3.18,9.52,9.52,0,0,1-.51,3.11,6.83,6.83,0,0,1-1.66,2.64,8.3,8.3,0,0,1-3,1.83,13.44,13.44,0,0,1-4.56.68h-2.29v6.14a3,3,0,0,0,.24,1.29,1.69,1.69,0,0,0,.65.74,2.54,2.54,0,0,0,.95.32,7,7,0,0,0,1.14.08h1.21v1.53H195Zm-22.66,0h.46a7,7,0,0,0,1.15-.08,2.54,2.54,0,0,0,.95-.32,1.75,1.75,0,0,0,.65-.74,3,3,0,0,0,.24-1.29V30.73a3.49,3.49,0,0,0-.23-1.37,2,2,0,0,0-.64-.79,2.47,2.47,0,0,0-1-.36,7.13,7.13,0,0,0-1.17-.09h-.46V26.59h18.33l.17,6.36h-1.88l-.18-1.56a4.82,4.82,0,0,0-.27-1.15,2.82,2.82,0,0,0-.59-.95,2.67,2.67,0,0,0-1-.65,3.6,3.6,0,0,0-1.39-.24h-6.11v9.68h8.77v1.78h-8.77V50.74h7a4.06,4.06,0,0,0,1.48-.24,2.79,2.79,0,0,0,1-.65,3.12,3.12,0,0,0,.64-1,4.81,4.81,0,0,0,.32-1.14l.25-1.56H192l-.25,6.35h-19.5Zm-38.07-.4h.45a3.48,3.48,0,0,0,.88-.11,1.86,1.86,0,0,0,.74-.4,3.12,3.12,0,0,0,.66-.81,8,8,0,0,0,.63-1.33l7.88-21.38h5L158.05,48a8.22,8.22,0,0,0,.56,1.27,3.1,3.1,0,0,0,.64.79,2,2,0,0,0,.74.42,2.45,2.45,0,0,0,.81.13h.66v1.93h-12V50.62h1.42a2.15,2.15,0,0,0,.55-.08,1.73,1.73,0,0,0,.51-.25,1.44,1.44,0,0,0,.36-.44,1.38,1.38,0,0,0,.14-.64,3.41,3.41,0,0,0-.1-.85c-.08-.27-.15-.51-.22-.71L150.84,44H142L141,47.14c-.09.29-.19.64-.29,1a4.26,4.26,0,0,0-.15,1,1.39,1.39,0,0,0,.14.63,1.31,1.31,0,0,0,.38.43,1.69,1.69,0,0,0,.52.26,2,2,0,0,0,.61.09h1.53v1.93h-9.47Zm-22.9,0h1.53a3.36,3.36,0,0,0,.74-.08,1.33,1.33,0,0,0,.59-.33,1.83,1.83,0,0,0,.39-.71,4.58,4.58,0,0,0,.14-1.25V30.87a4.55,4.55,0,0,0-.14-1.24,1.83,1.83,0,0,0-.39-.71,1.16,1.16,0,0,0-.59-.33,3.36,3.36,0,0,0-.74-.08h-1.53V26.59h12.55v1.92h-1.52a3.38,3.38,0,0,0-.72.08,1.33,1.33,0,0,0-.6.31,1.73,1.73,0,0,0-.4.67,3.67,3.67,0,0,0-.15,1.16v19.6h6.77a2.52,2.52,0,0,0,2-.81,5.13,5.13,0,0,0,1-2.35l.58-2.73h2l-.26,8.11H111.32Zm-23.77,0h1.52a3.52,3.52,0,0,0,.75-.08,1.29,1.29,0,0,0,.58-.33,1.61,1.61,0,0,0,.39-.71,4.17,4.17,0,0,0,.15-1.25V30.87a4.14,4.14,0,0,0-.15-1.24,1.61,1.61,0,0,0-.39-.71,1.13,1.13,0,0,0-.58-.33,3.52,3.52,0,0,0-.75-.08H87.55V26.59H100.1v1.92H98.57a3.38,3.38,0,0,0-.72.08,1.25,1.25,0,0,0-.59.31,1.62,1.62,0,0,0-.4.67,3.67,3.67,0,0,0-.15,1.16v19.6h6.76a2.51,2.51,0,0,0,2-.81,5,5,0,0,0,1-2.35l.59-2.73h2l-.27,8.11H87.55Zm-23.74,0h1.52a4.11,4.11,0,0,0,.73-.07,1.42,1.42,0,0,0,.6-.3,1.38,1.38,0,0,0,.39-.65,3.64,3.64,0,0,0,.15-1.15V30.87a4.14,4.14,0,0,0-.15-1.24,1.61,1.61,0,0,0-.39-.71,1.13,1.13,0,0,0-.58-.33,3.52,3.52,0,0,0-.75-.08H63.81V26.59H84l.15,6.7H81.6l-.18-1.73a4.16,4.16,0,0,0-.68-2,1.92,1.92,0,0,0-1.65-.71H73V37.9H81.6v2.19H73V50.33h7.28a2.1,2.1,0,0,0,.94-.2,2.05,2.05,0,0,0,.67-.58,3.18,3.18,0,0,0,.46-.88,6.73,6.73,0,0,0,.25-1.11l.29-1.7h2.52l-.27,6.69H63.81Zm-24.44,0h1.5a3.52,3.52,0,0,0,.75-.08,1.28,1.28,0,0,0,.59-.33,1.72,1.72,0,0,0,.4-.71,4.13,4.13,0,0,0,.16-1.25V30.84a3.77,3.77,0,0,0-.16-1.18,1.72,1.72,0,0,0-.4-.71,1.48,1.48,0,0,0-.61-.34,2.52,2.52,0,0,0-.73-.1h-1.5V26.59H50c3.46,0,6.06.54,7.8,1.6a5.46,5.46,0,0,1,2.61,5,6.05,6.05,0,0,1-.33,2.1,4.55,4.55,0,0,1-.93,1.55A6,6,0,0,1,57.69,38a10.6,10.6,0,0,1-1.87.78v.18a9.89,9.89,0,0,1,2.29.87,7.08,7.08,0,0,1,1.8,1.37A5.91,5.91,0,0,1,61.08,43a6.5,6.5,0,0,1,.42,2.4,6,6,0,0,1-2.61,5.35q-2.61,1.77-7.8,1.77H39.37ZM19.77,35.89a2.85,2.85,0,1,1-2.84,2.84A2.84,2.84,0,0,1,19.77,35.89Z"/><path class="cls-2" d="M58.89,50.78a6,6,0,0,0,2.61-5.35,6.5,6.5,0,0,0-.42-2.4,5.91,5.91,0,0,0-1.17-1.87,7.08,7.08,0,0,0-1.8-1.37,9.89,9.89,0,0,0-2.29-.87v-.18A10.6,10.6,0,0,0,57.69,38a6,6,0,0,0,1.45-1.11,4.55,4.55,0,0,0,.93-1.55,6.05,6.05,0,0,0,.33-2.1,5.46,5.46,0,0,0-2.61-5c-1.74-1.06-4.34-1.6-7.8-1.6H39.37v1.92h1.5a2.52,2.52,0,0,1,.73.1,1.48,1.48,0,0,1,.61.34,1.72,1.72,0,0,1,.4.71,3.77,3.77,0,0,1,.16,1.18V48.25a4.13,4.13,0,0,1-.16,1.25,1.72,1.72,0,0,1-.4.71,1.28,1.28,0,0,1-.59.33,3.52,3.52,0,0,1-.75.08h-1.5v1.93H51.09Q56.28,52.55,58.89,50.78Zm-10.39-22h1.31a8.78,8.78,0,0,1,2.08.22,3.15,3.15,0,0,1,1.39.74,3,3,0,0,1,.77,1.35,7.67,7.67,0,0,1,.24,2.08,9.35,9.35,0,0,1-.21,2.13,3.47,3.47,0,0,1-.72,1.45A3.05,3.05,0,0,1,52,37.6a7.1,7.1,0,0,1-2.12.27H48.5Zm0,21.52V40.09H51a5.74,5.74,0,0,1,2.09.32,3,3,0,0,1,1.35,1A3.79,3.79,0,0,1,55.16,43a11.27,11.27,0,0,1,.21,2.32,9.79,9.79,0,0,1-.24,2.34,3.59,3.59,0,0,1-.77,1.55,3.06,3.06,0,0,1-1.39.87,7.15,7.15,0,0,1-2,.26Z"/><path class="cls-2" d="M85.38,45.86H82.86l-.29,1.7a6.73,6.73,0,0,1-.25,1.11,3.18,3.18,0,0,1-.46.88,2.05,2.05,0,0,1-.67.58,2.1,2.1,0,0,1-.94.2H73V40.09H81.6V37.9H73V28.81h6.12a1.92,1.92,0,0,1,1.65.71,4.16,4.16,0,0,1,.68,2l.18,1.73h2.54L84,26.59H63.81v1.92h1.52a3.52,3.52,0,0,1,.75.08,1.13,1.13,0,0,1,.58.33,1.61,1.61,0,0,1,.39.71,4.14,4.14,0,0,1,.15,1.24V48.45a3.64,3.64,0,0,1-.15,1.15,1.38,1.38,0,0,1-.39.65,1.42,1.42,0,0,1-.6.3,4.11,4.11,0,0,1-.73.07H63.81v1.93h21.3Z"/><path class="cls-2" d="M109.12,44.44h-2l-.59,2.73a5,5,0,0,1-1,2.35,2.51,2.51,0,0,1-2,.81H96.71V30.73a3.67,3.67,0,0,1,.15-1.16,1.62,1.62,0,0,1,.4-.67,1.25,1.25,0,0,1,.59-.31,3.38,3.38,0,0,1,.72-.08h1.53V26.59H87.55v1.92h1.52a3.52,3.52,0,0,1,.75.08,1.13,1.13,0,0,1,.58.33,1.61,1.61,0,0,1,.39.71,4.14,4.14,0,0,1,.15,1.24V48.25a4.17,4.17,0,0,1-.15,1.25,1.61,1.61,0,0,1-.39.71,1.29,1.29,0,0,1-.58.33,3.52,3.52,0,0,1-.75.08H87.55v1.93h21.3Z"/><path class="cls-2" d="M132.89,44.44h-2l-.58,2.73a5.13,5.13,0,0,1-1,2.35,2.52,2.52,0,0,1-2,.81h-6.77V30.73a3.67,3.67,0,0,1,.15-1.16,1.73,1.73,0,0,1,.4-.67,1.33,1.33,0,0,1,.6-.31,3.38,3.38,0,0,1,.72-.08h1.52V26.59H111.32v1.92h1.53a3.36,3.36,0,0,1,.74.08,1.16,1.16,0,0,1,.59.33,1.83,1.83,0,0,1,.39.71,4.55,4.55,0,0,1,.14,1.24V48.25a4.58,4.58,0,0,1-.14,1.25,1.83,1.83,0,0,1-.39.71,1.33,1.33,0,0,1-.59.33,3.36,3.36,0,0,1-.74.08h-1.53v1.93h21.31Z"/><path class="cls-2" d="M143.69,50.62h-1.53a2,2,0,0,1-.61-.09,1.69,1.69,0,0,1-.52-.26,1.31,1.31,0,0,1-.38-.43,1.39,1.39,0,0,1-.14-.63,4.26,4.26,0,0,1,.15-1c.1-.4.2-.75.29-1L142,44h8.84l1.28,3.64c.07.2.14.44.22.71a3.41,3.41,0,0,1,.1.85,1.38,1.38,0,0,1-.14.64,1.44,1.44,0,0,1-.36.44,1.73,1.73,0,0,1-.51.25,2.15,2.15,0,0,1-.55.08h-1.42v1.93h12V50.62h-.66a2.45,2.45,0,0,1-.81-.13,2,2,0,0,1-.74-.42,3.1,3.1,0,0,1-.64-.79,8.22,8.22,0,0,1-.56-1.27l-7.6-21.42h-5L137.58,48A8,8,0,0,1,137,49.3a3.12,3.12,0,0,1-.66.81,1.86,1.86,0,0,1-.74.4,3.48,3.48,0,0,1-.88.11h-.45v1.93h9.47Zm1.22-15,.46-1.33.48-1.39q.24-.69.45-1.35c.14-.43.26-.84.37-1.21q.15.64.33,1.35t.39,1.41c.14.47.27.94.41,1.39s.27.89.4,1.31l1.92,6h-7.35Z"/><path class="cls-2" d="M192,46.2h-1.9l-.25,1.56a4.81,4.81,0,0,1-.32,1.14,3.12,3.12,0,0,1-.64,1,2.79,2.79,0,0,1-1,.65,4.06,4.06,0,0,1-1.48.24h-7V39.86h8.77V38.08h-8.77V28.4h6.11a3.6,3.6,0,0,1,1.39.24,2.67,2.67,0,0,1,1,.65,2.82,2.82,0,0,1,.59.95,4.82,4.82,0,0,1,.27,1.15l.18,1.56h1.88l-.17-6.36H172.29v1.53h.46a7.13,7.13,0,0,1,1.17.09,2.47,2.47,0,0,1,1,.36,2,2,0,0,1,.64.79,3.49,3.49,0,0,1,.23,1.37V48.59a3,3,0,0,1-.24,1.29,1.75,1.75,0,0,1-.65.74,2.54,2.54,0,0,1-.95.32,7,7,0,0,1-1.15.08h-.46v1.53h19.5Z"/><path class="cls-2" d="M206.26,51h-1.21a7,7,0,0,1-1.14-.08,2.54,2.54,0,0,1-.95-.32,1.69,1.69,0,0,1-.65-.74,3,3,0,0,1-.24-1.29V42.45h2.29a13.44,13.44,0,0,0,4.56-.68,8.3,8.3,0,0,0,3-1.83,6.83,6.83,0,0,0,1.66-2.64,9.52,9.52,0,0,0,.51-3.11,8.84,8.84,0,0,0-.54-3.18,6.12,6.12,0,0,0-1.65-2.38,7.35,7.35,0,0,0-2.78-1.51,13.46,13.46,0,0,0-4-.53H195v1.53h.46a8.53,8.53,0,0,1,1.15.08,2.31,2.31,0,0,1,.95.35,1.82,1.82,0,0,1,.64.75,3,3,0,0,1,.24,1.29V48.41a3.28,3.28,0,0,1-.23,1.37,1.69,1.69,0,0,1-.64.79,2.28,2.28,0,0,1-1,.37,7.13,7.13,0,0,1-1.16.08H195v1.53h11.31Zm-4.19-22.69h2.47a8.31,8.31,0,0,1,2.62.37,4.11,4.11,0,0,1,1.75,1.11,4.5,4.5,0,0,1,1,1.87,10.4,10.4,0,0,1,.3,2.65,10.9,10.9,0,0,1-.34,2.94,4.67,4.67,0,0,1-1.09,2,4.28,4.28,0,0,1-1.92,1.12,10.07,10.07,0,0,1-2.83.35h-1.93Z"/><path class="cls-2" d="M220.41,49.23A9.56,9.56,0,0,0,224,52a12.25,12.25,0,0,0,5,1,11.82,11.82,0,0,0,4.89-1,9.84,9.84,0,0,0,3.58-2.72,11.85,11.85,0,0,0,2.2-4.22,18.79,18.79,0,0,0,.75-5.47,18.81,18.81,0,0,0-.75-5.5,11.81,11.81,0,0,0-2.2-4.21,10,10,0,0,0-3.57-2.7,11.8,11.8,0,0,0-4.86-.95,12.55,12.55,0,0,0-5.06.95,9.5,9.5,0,0,0-3.59,2.69,11.65,11.65,0,0,0-2.13,4.2,19.88,19.88,0,0,0-.71,5.48,20.08,20.08,0,0,0,.71,5.5A11.71,11.71,0,0,0,220.41,49.23ZM222,34.72a10.47,10.47,0,0,1,1.3-3.58,6.07,6.07,0,0,1,2.31-2.22,7.21,7.21,0,0,1,3.45-.76,7,7,0,0,1,3.42.76,6.11,6.11,0,0,1,2.27,2.22A10.68,10.68,0,0,1,236,34.72a26.79,26.79,0,0,1,.39,4.82,26.87,26.87,0,0,1-.39,4.82,10.76,10.76,0,0,1-1.27,3.58,6,6,0,0,1-2.29,2.24,8,8,0,0,1-6.87,0,6,6,0,0,1-2.3-2.24A10.55,10.55,0,0,1,222,44.36a25.93,25.93,0,0,1-.4-4.82A25.85,25.85,0,0,1,222,34.72Z"/><path class="cls-2" d="M247,48.73a9.44,9.44,0,0,0,3.08,2.78,11.05,11.05,0,0,0,4.36,1.33,10.22,10.22,0,0,0,1,3.89,7.29,7.29,0,0,0,2,2.49,7,7,0,0,0,2.6,1.31,10.83,10.83,0,0,0,2.87.38h1.56v-1.7h-.59a6.2,6.2,0,0,1-2-.32,3.93,3.93,0,0,1-1.62-1.07,5.84,5.84,0,0,1-1.13-2,12.57,12.57,0,0,1-.61-3.12,10.14,10.14,0,0,0,3.85-1.5,9.93,9.93,0,0,0,2.82-2.81,13,13,0,0,0,1.73-3.94,19.36,19.36,0,0,0,.59-4.9,18.81,18.81,0,0,0-.75-5.5,12,12,0,0,0-2.2-4.21,10,10,0,0,0-3.57-2.7,11.8,11.8,0,0,0-4.86-.95,12.55,12.55,0,0,0-5.06.95,9.5,9.5,0,0,0-3.59,2.69,11.65,11.65,0,0,0-2.13,4.2,19.51,19.51,0,0,0-.71,5.48,20.29,20.29,0,0,0,.61,5.16A12.44,12.44,0,0,0,247,48.73Zm2-14a10.47,10.47,0,0,1,1.29-3.58,6.09,6.09,0,0,1,2.32-2.22,7.21,7.21,0,0,1,3.45-.76,7,7,0,0,1,3.41.76,6.06,6.06,0,0,1,2.28,2.22A10.68,10.68,0,0,1,263,34.72a26.79,26.79,0,0,1,.39,4.82,26.87,26.87,0,0,1-.39,4.82,10.76,10.76,0,0,1-1.27,3.58,6,6,0,0,1-2.29,2.24,8,8,0,0,1-6.87,0,6,6,0,0,1-2.3-2.24A10.34,10.34,0,0,1,249,44.36a25.93,25.93,0,0,1-.4-4.82A25.85,25.85,0,0,1,249,34.72Z"/><path class="cls-2" d="M271.66,28.2a2.26,2.26,0,0,1,.95.35,1.84,1.84,0,0,1,.65.75,3,3,0,0,1,.24,1.29V44.7a10.32,10.32,0,0,0,.62,3.78,6.46,6.46,0,0,0,1.8,2.54,7.47,7.47,0,0,0,2.89,1.43,14.67,14.67,0,0,0,3.85.46,12.5,12.5,0,0,0,3.84-.54,7.51,7.51,0,0,0,2.79-1.53A6.43,6.43,0,0,0,291,48.39a8.85,8.85,0,0,0,.58-3.26V30.73a3.3,3.3,0,0,1,.24-1.37,2,2,0,0,1,.63-.79,2.41,2.41,0,0,1,.95-.36,7.27,7.27,0,0,1,1.16-.09H295V26.59h-9.13v1.53h.46a8.42,8.42,0,0,1,1.15.08,2.26,2.26,0,0,1,1,.35,1.84,1.84,0,0,1,.65.75,3,3,0,0,1,.24,1.29V45.06a6.9,6.9,0,0,1-.37,2.28,4.57,4.57,0,0,1-1.12,1.79,5,5,0,0,1-1.9,1.18,7.65,7.65,0,0,1-2.72.43,8.9,8.9,0,0,1-2.44-.32,5,5,0,0,1-1.92-1,4.57,4.57,0,0,1-1.26-1.8,7.18,7.18,0,0,1-.45-2.69V30.73a3.3,3.3,0,0,1,.24-1.37,2,2,0,0,1,.63-.79,2.41,2.41,0,0,1,.95-.36,7.27,7.27,0,0,1,1.16-.09h.48V26.59H270.06v1.53h.46A8.27,8.27,0,0,1,271.66,28.2Z"/><path class="cls-2" d="M316.7,46.2h-1.9l-.25,1.56a4.81,4.81,0,0,1-.32,1.14,3,3,0,0,1-.64,1,2.79,2.79,0,0,1-1,.65,4.06,4.06,0,0,1-1.48.24h-7V39.86h8.77V38.08h-8.77V28.4h6.1a3.66,3.66,0,0,1,1.4.24,2.86,2.86,0,0,1,1,.65,2.79,2.79,0,0,1,.58.95,4.84,4.84,0,0,1,.28,1.15l.17,1.56h1.89l-.18-6.36H297v1.53h.46a7.09,7.09,0,0,1,1.16.09,2.41,2.41,0,0,1,.95.36,1.87,1.87,0,0,1,.64.79,3.49,3.49,0,0,1,.23,1.37V48.59a3,3,0,0,1-.24,1.29,1.75,1.75,0,0,1-.65.74,2.54,2.54,0,0,1-.95.32,7,7,0,0,1-1.14.08H297v1.53h19.49Z"/><path class="cls-2" d="M355.35,0H0V77.47H356.59V0Zm0,76.23H1.23v-75H355.35Z"/><path class="cls-2" d="M19.77,41.58a2.85,2.85,0,1,0-2.84-2.85A2.85,2.85,0,0,0,19.77,41.58Z"/><path class="cls-2" d="M336.82,41.58A2.85,2.85,0,1,0,334,38.73,2.85,2.85,0,0,0,336.82,41.58Z"/></g></g></svg>