<svg xmlns="http://www.w3.org/2000/svg" viewBox="0 0 330.89 75"><defs><style>.cls-1{fill:#000064;}</style></defs><g id="Layer_2" data-name="Layer 2"><g id="_2._TEXT" data-name="2. TEXT"><path class="cls-1" d="M120.55,27.35c0,.29,0,.43-.33.43h-1a.39.39,0,0,1-.44-.29c-.91-2.59-3.45-5.9-9-5.9-5.19,0-8.79,2.54-9.22,6.48-.43,4.13,2.74,5.66,7.83,7.39l2.2.72c6.39,2.16,9.41,4.94,8.88,9.84-.53,5.57-5.08,9.07-11.85,9.07-8.26,0-11.33-4.94-12-8.78,0-.24.09-.39.38-.39h1.06c.24,0,.33.1.43.34.77,3.17,3.36,7.15,10.32,7.15,5.52,0,9.46-2.64,9.94-7.15.38-4.22-2.64-6.53-8.26-8.4l-2.21-.77c-5.66-1.87-8.88-4-8.49-8.78.52-5.19,5.23-8.4,11.32-8.4C116.9,19.91,119.83,24.32,120.55,27.35Z"/><path class="cls-1" d="M148.82,21.59a.42.42,0,0,1-.43.38h-10.7l-3.17,32.4a.42.42,0,0,1-.43.39H133a.3.3,0,0,1-.33-.39L136,22H125.21c-.24,0-.39-.14-.34-.38l.1-.91a.42.42,0,0,1,.43-.39h23.13a.31.31,0,0,1,.34.39Z"/><path class="cls-1" d="M150.74,43l-5.23,11.43a.48.48,0,0,1-.48.29h-.91c-.29,0-.38-.2-.29-.44l15.41-33.74a.49.49,0,0,1,.48-.29h1.39a.38.38,0,0,1,.43.34l8.64,33.69c0,.29,0,.44-.33.44h-1a.38.38,0,0,1-.43-.34L165.48,43Zm9.51-20.44h-.15l-8.59,18.72h13.54Z"/><path class="cls-1" d="M188.33,38l9.21,16.31c.15.29,0,.49-.29.49h-1.44a.47.47,0,0,1-.43-.29L186.31,38h-9l-1.59,16.41a.42.42,0,0,1-.43.39h-1.1a.31.31,0,0,1-.34-.39l3.46-33.69a.42.42,0,0,1,.43-.39h11.81c5.95,0,9.26,3.6,8.68,8.74C197.78,34,194,37.72,188.33,38Zm-.53-1.64c5.09,0,8.35-2.92,8.78-7.2s-2.35-7.19-7.34-7.19H178.87l-1.39,14.39Z"/><path class="cls-1" d="M226.68,27.35c0,.29-.05.43-.34.43h-1a.39.39,0,0,1-.43-.29c-.91-2.59-3.46-5.9-9-5.9-5.19,0-8.79,2.54-9.22,6.48-.43,4.13,2.74,5.66,7.82,7.39l2.21.72c6.38,2.16,9.41,4.94,8.88,9.84-.53,5.57-5.09,9.07-11.85,9.07-8.26,0-11.33-4.94-12-8.78,0-.24.09-.39.38-.39h1.06c.24,0,.33.1.43.34.77,3.17,3.36,7.15,10.32,7.15,5.52,0,9.45-2.64,9.93-7.15.39-4.22-2.64-6.53-8.25-8.4l-2.21-.77c-5.66-1.87-8.88-4-8.5-8.78.53-5.19,5.24-8.4,11.33-8.4C223,19.91,226,24.32,226.68,27.35Z"/><path class="cls-1" d="M258.07,20.29a.31.31,0,0,1,.34.39l-3.27,33.69a.42.42,0,0,1-.43.39h-1.1a.31.31,0,0,1-.34-.39l1.73-17H234.36l-1.63,17a.42.42,0,0,1-.43.39h-1.06a.31.31,0,0,1-.34-.39l3.41-33.69a.42.42,0,0,1,.43-.39h.92a.3.3,0,0,1,.33.39l-1.44,15h20.64l1.54-15a.42.42,0,0,1,.43-.39Z"/><path class="cls-1" d="M266.71,54.37a.42.42,0,0,1-.43.39h-1.1a.31.31,0,0,1-.34-.39l3.46-33.69a.42.42,0,0,1,.43-.39h.91a.31.31,0,0,1,.34.39Z"/><path class="cls-1" d="M303.38,20.29a.31.31,0,0,1,.34.39l-3.27,33.69a.42.42,0,0,1-.43.39h-1.68a.47.47,0,0,1-.43-.29L281.45,22l-3.12,32.35a.42.42,0,0,1-.43.39h-1.06a.31.31,0,0,1-.34-.39l3.41-33.69a.42.42,0,0,1,.43-.39h1.73a.46.46,0,0,1,.43.29l16.32,32L302,20.68a.42.42,0,0,1,.43-.39Z"/><path class="cls-1" d="M311.35,35.7h14.78c.24,0,.39.14.34.38l-.1.92a.41.41,0,0,1-.43.38H311.21l-1.54,15.69h17.81a.3.3,0,0,1,.33.39l-.09.91a.42.42,0,0,1-.43.39H308a.31.31,0,0,1-.34-.39l3.41-33.69a.42.42,0,0,1,.43-.39h19a.31.31,0,0,1,.34.39l-.05.91a.42.42,0,0,1-.43.38H312.7Z"/><path class="cls-1" d="M39.43,21.38l3.7,7.5,2.2,4.46,4.92.71,8.27,1.2-6,5.84L49,44.56l.84,4.9,1.41,8.24-7.4-3.89-4.4-2.31L35,53.81l-7.4,3.89L29,49.46l.84-4.9-3.56-3.47-6-5.84,8.27-1.2,4.92-.71,2.2-4.46,3.7-7.5M39.43,0,27.25,24.69,0,28.65,19.71,47.86,15.06,75,39.43,62.19,63.8,75,59.14,47.86,78.86,28.65l-27.25-4L39.43,0Z"/></g></g></svg>