<svg xmlns="http://www.w3.org/2000/svg" viewBox="0 0 533.33 50"><defs><style>.cls-1{fill:#000064;}</style></defs><g id="Layer_2" data-name="Layer 2"><g id="_2._TEXT" data-name="2. TEXT"><path class="cls-1" d="M11.11,0H22.22V50H11.11V16.67H5.56v5.55H0V11.11H5.56V5.56h5.55Z"/><path class="cls-1" d="M44.44,0H66.67V5.56h5.55v5.55H61.11V5.56H50V44.44H61.11V38.89H72.22v5.55H66.67V50H44.44V44.44H38.89V5.56h5.55Z"/><path class="cls-1" d="M83.33,0H94.44V22.22h11.12V0h11.11V50H105.56V27.78H94.44V50H83.33Z"/><path class="cls-1" d="M133.33,0h11.11V38.89H133.33Zm0,44.44h11.11V50H133.33Z"/><path class="cls-1" d="M161.11,0h27.78V5.56h5.55V22.22h-5.55v5.56h5.55V44.44h-5.55V50H161.11Zm22.22,5.56H172.22V22.22h11.11Zm0,22.22H172.22V44.44h11.11Z"/><path class="cls-1" d="M211.11,0h22.22V5.56h5.56V50H227.78V33.33H216.67V50H205.56V5.56h5.55Zm16.67,5.56H216.67V27.78h11.11Z"/><path class="cls-1" d="M250,0h11.11V16.67h5.56v5.55h5.55V0h11.11V50H272.22V33.33h-5.55V27.78h-5.56V50H250Z"/><path class="cls-1" d="M322.22,0h22.22V5.56H350v5.55H338.89V5.56H327.78V44.44h11.11V27.78h-5.56V22.22H350V50H322.22V44.44h-5.55V5.56h5.55Z"/><path class="cls-1" d="M366.67,0h22.22V5.56h5.55V50H383.33V33.33H372.22V50H361.11V5.56h5.56Zm16.66,5.56H372.22V27.78h11.11Z"/><path class="cls-1" d="M405.56,0h11.11V11.11h5.55v5.56h5.56V11.11h5.55V0h11.11V50H433.33V22.22h-5.55v5.56h-5.56V22.22h-5.55V50H405.56Z"/><path class="cls-1" d="M455.56,0h33.33V5.56H466.67V22.22h11.11v5.56H466.67V44.44h22.22V50H455.56Z"/><path class="cls-1" d="M505.56,0h22.22V5.56h5.55v5.55H522.22V5.56H511.11V22.22h16.67v5.56h5.55V44.44h-5.55V50H505.56V44.44H500V38.89h11.11v5.55h11.11V27.78H505.56V22.22H500V5.56h5.56Z"/></g></g></svg>