<svg xmlns="http://www.w3.org/2000/svg" viewBox="0 0 136.18 50"><defs><style>.cls-1{fill:#000064;}</style></defs><g id="Layer_2" data-name="Layer 2"><g id="_2._TEXT" data-name="2. TEXT"><path class="cls-1" d="M31.28,9.69a2,2,0,0,1,.61,1.5V38.8a2,2,0,0,1-.63,1.51,2.12,2.12,0,0,1-3,0,2,2,0,0,1-.61-1.51V18.54l-9.87,20.1A2.09,2.09,0,0,1,16,39.7a2,2,0,0,1-2-1.26L4.24,18.9V38.8a2,2,0,0,1-.61,1.51,2.05,2.05,0,0,1-1.51.62,2.05,2.05,0,0,1-1.51-.62A2,2,0,0,1,0,38.8V11.19a2,2,0,0,1,.61-1.5,2.05,2.05,0,0,1,1.51-.62A2.05,2.05,0,0,1,4,10.22L16.11,34.48,27.89,10.22a2.13,2.13,0,0,1,3.39-.53Z" transform="translate(0 0)"/><path class="cls-1" d="M62.76,37.5a2.4,2.4,0,0,1,.45,1.39,2.1,2.1,0,0,1-.53,1.42,1.79,1.79,0,0,1-1.43.62,2,2,0,0,1-1.63-.78L50.77,27.87,41.39,40.31a2,2,0,0,1-1.46.62,1.77,1.77,0,0,1-1.41-.58A2,2,0,0,1,38,39a2.35,2.35,0,0,1,.49-1.47L48,24.86,39,12.42a2,2,0,0,1-.41-1.27,2.15,2.15,0,0,1,.53-1.46,1.79,1.79,0,0,1,1.43-.62,1.76,1.76,0,0,1,1.51.62l8.76,12.15L60,9.69a2,2,0,0,1,1.51-.62,1.74,1.74,0,0,1,1.37.58,2,2,0,0,1,.5,1.38,2.53,2.53,0,0,1-.44,1.39l-9.3,12.4Z" transform="translate(0 0)"/><path class="cls-1" d="M100.53,9.69a2.06,2.06,0,0,1,.61,1.5V38.8a2,2,0,0,1-.63,1.51,2.09,2.09,0,0,1-1.49.62,2.05,2.05,0,0,1-1.51-.62,2,2,0,0,1-.61-1.51V18.54L87,38.64a2.11,2.11,0,0,1-1.84,1.06,2.05,2.05,0,0,1-2-1.26L73.49,18.9V38.8a2.13,2.13,0,0,1-3.63,1.51,2,2,0,0,1-.61-1.51V11.19a2,2,0,0,1,.61-1.5,2.12,2.12,0,0,1,3.38.53L85.36,34.48,97.14,10.22a2.13,2.13,0,0,1,3.39-.53Z" transform="translate(0 0)"/><path class="cls-1" d="M136,38.27c0,2.12.14,4.25,0,6.36-.29,3.54-2,5.18-5.51,5.3q-4.29.14-8.58,0c-3.49-.11-5.53-1.77-5.47-5.28.12-6.75-1.79-13.82,2.62-20.06.48-.67.31-1.85.31-2.8,0-4,.09-8.06,0-12.09-.08-3.63,1.82-6.25,4.23-8.56a3.52,3.52,0,0,1,5.18,0c2.41,2.3,4.34,4.93,4.23,8.56-.08,2.54,0,5.09,0,7.63,0,3.56-.34,7.1,1.86,10.39S135.84,34.72,136,38.27Zm-3.17-2.2-2.78-.24c-.84-.09-1.86-.06-1.94-1.19s.93-1.23,1.78-1.33c.32,0,.64,0,1-.05.9-.12,2.18.14,2.23-1.18s-1.26-1.19-2.15-1.21c-3.18,0-6.36,0-9.54,0-1.72,0-2.53.74-2.52,2.47,0,3.71,0,7.42,0,11.13,0,1.88.91,3.15,2.78,3.23a68.87,68.87,0,0,0,9.2-.06c1.94-.18,3.51-1.89,2-3.51s.76-5-2.79-5.31c-.37,0,0-1.11.6-1.47S132.25,37.32,132.87,36.07Zm-2-16.15c-.18-1.65.59-3.54-.42-4.72s-2.66.65-4.11.32a7.36,7.36,0,0,0-1,0c-3.88-.42-3.88-.42-3.88,3.71,0,1.16,0,2.32,0,3.49,0,.87.13,1.86,1.16,2,2.4.33,5,.78,7.19-.19C131.76,23.67,130.53,21.41,130.9,19.92Zm-9.2-11a4.75,4.75,0,0,0,4.65,4.32,4.88,4.88,0,0,0,4.36-4.67c-.1-1.95-3.19-6.11-4.54-6.13S121.64,6.91,121.7,8.93Z" transform="translate(0 0)"/></g></g></svg>