<svg xmlns="http://www.w3.org/2000/svg" viewBox="0 0 137.56 55.86"><defs><style>.cls-1{fill:#000064;}</style></defs><g id="Layer_2" data-name="Layer 2"><g id="_2._TEXT" data-name="2. TEXT"><path class="cls-1" d="M16.05,0A15.46,15.46,0,0,0,4.76,4.68,15.58,15.58,0,0,0,0,16.05V39.81A15.29,15.29,0,0,0,4.74,51.08a15.31,15.31,0,0,0,11.31,4.78A15.32,15.32,0,0,0,27.34,51.1,15.46,15.46,0,0,0,32,39.81V16.05A15.73,15.73,0,0,0,27.34,4.68,15.49,15.49,0,0,0,16.05,0Zm0,47.6a7.48,7.48,0,0,1-5.51-2.29,7.44,7.44,0,0,1-2.29-5.5V16.05a7.41,7.41,0,0,1,2.3-5.5,7.41,7.41,0,0,1,5.5-2.3,7.41,7.41,0,0,1,5.5,2.3,7.44,7.44,0,0,1,2.29,5.5V39.81a7.44,7.44,0,0,1-2.29,5.5A7.44,7.44,0,0,1,16.05,47.6Z"/><path class="cls-1" d="M55.18,0h-16V55.86h8.26V32.09h7.79a15.3,15.3,0,0,0,11.29-4.75,15.49,15.49,0,0,0,4.68-11.29A15.73,15.73,0,0,0,66.47,4.68,15.49,15.49,0,0,0,55.18,0ZM47.39,8.25h7.79a7.41,7.41,0,0,1,5.5,2.3A7.44,7.44,0,0,1,63,16.05a7.44,7.44,0,0,1-2.29,5.5,7.44,7.44,0,0,1-5.5,2.29H47.39Z"/><path class="cls-1" d="M94.31,0A15.57,15.57,0,0,0,82.94,4.68a15.53,15.53,0,0,0-4.68,11.37V55.86h8.26V32H102V55.86h8.33V16.05a15.53,15.53,0,0,0-4.68-11.37A15.55,15.55,0,0,0,94.31,0Zm0,8.25a7.38,7.38,0,0,1,5.47,2.27A7.56,7.56,0,0,1,102,16.05v7.79H86.52V16.05a7.4,7.4,0,0,1,2.29-5.5A7.41,7.41,0,0,1,94.31,8.25Z"/><rect class="cls-1" x="129.31" y="47.6" width="8.25" height="8.26"/><rect class="cls-1" x="129.31" width="8.25" height="42.74"/></g></g></svg>